<?xml version="1.0" encoding="utf-8"?>
<svg version="1.1" xmlns:xlink="http://www.w3.org/1999/xlink" width="240px" height="140px" xmlns="http://www.w3.org/2000/svg">
  <g transform="matrix(1 0 0 1 -733 -45 )">
    <path d="M 734 55  A 9 9 0 0 1 743 46 L 963 46  A 9 9 0 0 1 972 55 L 972 175  A 9 9 0 0 1 963 184 L 743 184  A 9 9 0 0 1 734 175 L 734 55  Z " fill-rule="nonzero" fill="#ffffff" stroke="none" fill-opacity="0.0980392156862745" />
    <path d="M 733.5 55  A 9.5 9.5 0 0 1 743 45.5 L 963 45.5  A 9.5 9.5 0 0 1 972.5 55 L 972.5 175  A 9.5 9.5 0 0 1 963 184.5 L 743 184.5  A 9.5 9.5 0 0 1 733.5 175 L 733.5 55  Z " stroke-width="1" stroke="#ffffff" fill="none" stroke-opacity="0.349019607843137" />
  </g>
</svg>